<svg width="26" height="25" viewBox="0 0 26 25" fill="none" xmlns="http://www.w3.org/2000/svg">
<path d="M13 0.390625C6.31201 0.390625 0.890625 5.81201 0.890625 12.5C0.890625 19.188 6.31201 24.6094 13 24.6094C19.688 24.6094 25.1094 19.188 25.1094 12.5C25.1094 5.81201 19.688 0.390625 13 0.390625ZM17.0181 17.8516C16.8276 18.041 16.6279 18.2397 16.4658 18.4023C16.3198 18.5488 16.2168 18.7295 16.1646 18.9253C16.0908 19.2017 16.0312 19.481 15.9316 19.749L15.0825 22.0366C14.4106 22.1831 13.7153 22.2656 13 22.2656V20.9287C13.0825 20.3125 12.627 19.1582 11.895 18.4263C11.6021 18.1333 11.4375 17.7358 11.4375 17.3213V15.7583C11.4375 15.1899 11.1313 14.6675 10.6338 14.3926C9.93213 14.0044 8.93408 13.4619 8.25049 13.1177C7.68994 12.8354 7.17139 12.4761 6.70508 12.0557L6.66602 12.0205C6.33255 11.7195 6.03648 11.3795 5.78418 11.0078C5.32617 10.3354 4.58008 9.22949 4.09521 8.51074C5.09473 6.28906 6.896 4.50488 9.13428 3.53564L10.3066 4.12207C10.8262 4.38184 11.4375 4.00439 11.4375 3.42334V2.87158C11.8276 2.80859 12.2246 2.76855 12.6284 2.75342L14.0103 4.13525C14.3154 4.44043 14.3154 4.93506 14.0103 5.24023L13.7812 5.46875L13.2764 5.97363C13.124 6.12598 13.124 6.37353 13.2764 6.52588L13.5054 6.75488C13.6577 6.90723 13.6577 7.15478 13.5054 7.30713L13.1147 7.69775C13.0414 7.77096 12.942 7.81205 12.8384 7.81201H12.3994C12.2979 7.81201 12.2002 7.85156 12.127 7.92285L11.6426 8.39404C11.5832 8.45186 11.5437 8.52705 11.5299 8.60876C11.516 8.69046 11.5285 8.77446 11.5654 8.84863L12.3267 10.3716C12.4565 10.6313 12.2676 10.937 11.9775 10.937H11.7021C11.6079 10.937 11.5171 10.9028 11.4463 10.8413L10.9932 10.4478C10.8906 10.3588 10.7667 10.2981 10.6336 10.2715C10.5004 10.245 10.3627 10.2536 10.2339 10.2964L8.71191 10.8037C8.59572 10.8425 8.49466 10.9168 8.42306 11.0162C8.35146 11.1155 8.31295 11.2349 8.31299 11.3574C8.31299 11.5786 8.43799 11.7803 8.63574 11.8794L9.17676 12.1499C9.63623 12.3799 10.1431 12.4995 10.6567 12.4995C11.1704 12.4995 11.7598 13.832 12.2192 14.062H15.4785C15.8931 14.062 16.29 14.2266 16.5835 14.5195L17.252 15.188C17.5312 15.4674 17.6881 15.8462 17.688 16.2412C17.6879 16.5405 17.6287 16.8369 17.5137 17.1132C17.3987 17.3896 17.2303 17.6405 17.0181 17.8516ZM21.252 13.3911C20.9692 13.3203 20.7227 13.147 20.561 12.9043L19.6831 11.5874C19.5546 11.395 19.4861 11.1688 19.4861 10.9375C19.4861 10.7062 19.5546 10.48 19.6831 10.2876L20.6396 8.85303C20.7529 8.68359 20.9082 8.5459 21.0908 8.45508L21.7246 8.13818C22.3848 9.45264 22.7656 10.9312 22.7656 12.5C22.7656 12.9233 22.7295 13.3379 22.6768 13.7471L21.252 13.3911Z" fill="#4870A0"/>
</svg>
