<svg width="25" height="21" viewBox="0 0 25 21" fill="none" xmlns="http://www.w3.org/2000/svg">
<path d="M0 6.20313V5.42188C0 4.77467 0.524658 4.25001 1.17188 4.25001H18.75V1.90626C18.75 0.862948 20.0146 0.341708 20.7505 1.0776L24.6568 4.98385C25.1144 5.44151 25.1144 6.18351 24.6568 6.64112L20.7505 10.5474C20.0174 11.2804 18.75 10.7664 18.75 9.71876V7.37501H1.17188C0.524658 7.37501 0 6.85035 0 6.20313ZM23.8281 13.625H6.25V11.2813C6.25 10.2405 4.98721 9.71485 4.24946 10.4526L0.343213 14.3588C-0.114404 14.8165 -0.114404 15.5585 0.343213 16.0161L4.24946 19.9224C4.98325 20.6561 6.25 20.1405 6.25 19.0938V16.75H23.8281C24.4753 16.75 25 16.2254 25 15.5781V14.7969C25 14.1497 24.4753 13.625 23.8281 13.625Z" fill="black"/>
</svg>
